<svg width="18" height="18" viewBox="0 0 18 18" fill="none" xmlns="http://www.w3.org/2000/svg">
<path d="M4.55566 10C5.10795 10 5.55566 9.55228 5.55566 9C5.55566 8.44772 5.10795 8 4.55566 8C4.00338 8 3.55566 8.44772 3.55566 9C3.55566 9.55228 4.00338 10 4.55566 10Z" fill="#FF8822"/>
<path d="M4.55566 13.5557C5.10795 13.5557 5.55566 13.1079 5.55566 12.5557C5.55566 12.0034 5.10795 11.5557 4.55566 11.5557C4.00338 11.5557 3.55566 12.0034 3.55566 12.5557C3.55566 13.1079 4.00338 13.5557 4.55566 13.5557Z" fill="#FF8822"/>
<path d="M4.55566 6.44434C5.10795 6.44434 5.55566 5.99662 5.55566 5.44434C5.55566 4.89205 5.10795 4.44434 4.55566 4.44434C4.00338 4.44434 3.55566 4.89205 3.55566 5.44434C3.55566 5.99662 4.00338 6.44434 4.55566 6.44434Z" fill="#FF8822"/>
<path d="M13.4444 4.55566H8.11106C7.62014 4.55566 7.22217 4.95363 7.22217 5.44455C7.22217 5.93547 7.62014 6.33344 8.11106 6.33344H13.4444C13.9353 6.33344 14.3333 5.93547 14.3333 5.44455C14.3333 4.95363 13.9353 4.55566 13.4444 4.55566Z" fill="#FF8822"/>
<path d="M13.4444 8.11108H8.11106C7.62014 8.11108 7.22217 8.50905 7.22217 8.99997C7.22217 9.49089 7.62014 9.88886 8.11106 9.88886H13.4444C13.9353 9.88886 14.3333 9.49089 14.3333 8.99997C14.3333 8.50905 13.9353 8.11108 13.4444 8.11108Z" fill="#FF8822"/>
<path d="M13.4444 11.6667H8.11106C7.62014 11.6667 7.22217 12.0647 7.22217 12.5556C7.22217 13.0466 7.62014 13.4445 8.11106 13.4445H13.4444C13.9353 13.4445 14.3333 13.0466 14.3333 12.5556C14.3333 12.0647 13.9353 11.6667 13.4444 11.6667Z" fill="#FF8822"/>
<path d="M15 1H3C1.89543 1 1 1.89543 1 3V15C1 16.1046 1.89543 17 3 17H15C16.1046 17 17 16.1046 17 15V3C17 1.89543 16.1046 1 15 1Z" stroke="#FF8822" stroke-width="2" stroke-linecap="round" stroke-linejoin="round"/>
</svg>

